<svg width="538" height="408" viewBox="0 0 538 408" fill="none" xmlns="http://www.w3.org/2000/svg">
<g opacity="0.25">
<mask id="mask0_1010_2242" style="mask-type:alpha" maskUnits="userSpaceOnUse" x="0" y="0" width="538" height="408">
<rect x="536.553" y="0.5" width="406.678" height="535.857" transform="rotate(90 536.553 0.5)" fill="url(#paint0_linear_1010_2242)" stroke="#6246E5"/>
</mask>
<g mask="url(#mask0_1010_2242)">
<path d="M145.59 521.712C68.0159 521.712 5.12063 458.125 5.12063 379.674C5.12063 301.223 68.0159 237.636 145.59 237.636C223.163 237.636 286.059 301.223 286.059 379.674C286.059 458.125 223.163 521.712 145.59 521.712Z" stroke="#E5E5E5"/>
<path d="M160.429 527.337C73.6358 527.337 3.26647 456.193 3.26647 368.42C3.26648 280.647 73.6358 209.502 160.429 209.502C247.222 209.502 317.592 280.647 317.592 368.42C317.592 456.193 247.222 527.337 160.429 527.337Z" stroke="#E5E5E5"/>
<path d="M172.487 532.966C77.4982 532.966 0.485279 455.104 0.485283 359.044C0.485287 262.985 77.4982 185.123 172.487 185.123C267.475 185.123 344.488 262.985 344.488 359.044C344.488 455.104 267.475 532.966 172.487 532.966Z" stroke="#E5E5E5"/>
<path d="M190.106 536.716C87.9468 536.716 5.12078 452.976 5.12078 349.666C5.12078 246.356 87.9468 162.616 190.106 162.616C292.266 162.616 375.092 246.356 375.092 349.666C375.092 452.976 292.266 536.716 190.106 536.716Z" stroke="#E5E5E5"/>
<path d="M207.264 540.467C98.1896 540.467 9.75804 451.059 9.75805 340.757C9.75805 230.455 98.1896 141.047 207.264 141.047C316.338 141.047 404.77 230.455 404.77 340.757C404.77 451.059 316.338 540.467 207.264 540.467Z" stroke="#E5E5E5"/>
<path d="M226.741 545.156C106.91 545.156 9.7592 446.931 9.75921 325.754C9.75921 204.576 106.91 106.351 226.741 106.351C346.571 106.351 443.723 204.576 443.723 325.754C443.723 446.932 346.571 545.156 226.741 545.156Z" stroke="#E5E5E5"/>
</g>
</g>
<defs>
<linearGradient id="paint0_linear_1010_2242" x1="826.194" y1="15.0621" x2="549.966" y2="543.606" gradientUnits="userSpaceOnUse">
<stop stop-color="#747DEF"/>
<stop offset="1" stop-color="#5E3BE1"/>
</linearGradient>
</defs>
</svg>
