<svg width="163" height="200" viewBox="0 0 163 314" fill="none" xmlns="http://www.w3.org/2000/svg">
<path d="M162.191 21.3468L161.836 24.6881L119.667 295.704C117.999 306.429 110.035 313.788 101.331 313.347H100.985H100.643H100.296H99.9496H99.6075H99.4492C105.728 312.953 111.425 308.534 114.368 301.834C114.543 301.432 114.71 301.026 114.864 300.606C114.971 300.328 115.069 300.046 115.163 299.751C115.598 298.431 115.923 297.077 116.134 295.704L158.769 21.719C158.799 21.5436 158.825 21.3682 158.842 21.1971C158.951 20.4181 159.021 19.6342 159.051 18.8483C159.453 8.70471 153.29 1.01678 144.415 0.879878H143.889H143.363H142.837C142.666 0.879878 142.486 0.879878 142.311 0.879878H141.784H141.438H141.074L140.608 0.824265H140.583L140.134 0.790039C140.287 0.790039 140.433 0.790039 140.587 0.790039H141.113C141.288 0.790039 141.464 0.790039 141.639 0.790039H142.152H142.678C142.854 0.790039 143.025 0.790039 143.205 0.790039H143.731H144.257H144.783H145.309H145.835C146.01 0.790039 146.181 0.790039 146.357 0.790039H146.485C156.532 2.19757 163.341 10.5058 162.191 21.3468Z" fill="url(#paint0_linear_0_1)"/>
<path d="M158.769 21.6808L116.147 295.657C114.586 305.694 107.503 312.791 99.4659 313.292H99.2777H98.9313H98.5848C98.4736 313.292 98.3538 313.292 98.2426 313.292H97.8962H97.5497H97.2033H96.8568H96.5147H96.1768C95.2523 313.268 94.3332 313.144 93.4351 312.924L30.3257 297.206L30.2059 297.176L12.46 293.064C4.25643 291.173 -0.957409 281.034 0.693572 270.39L38.3325 28.4703L39.1152 23.1097C40.0135 16.9534 42.9176 11.4046 46.7329 7.76809C47.0408 7.47289 47.3573 7.19053 47.6781 6.91244C47.892 6.73276 48.1058 6.55735 48.3282 6.3905C48.5507 6.22365 48.756 6.06536 48.9912 5.90706C49.7494 5.37634 50.5522 4.91255 51.3907 4.52093C51.6259 4.41398 51.8654 4.3113 52.1007 4.22146C53.3762 3.70853 54.7304 3.41909 56.1041 3.36582L138.332 0.657715L141.057 0.743278H141.232C141.412 0.743278 141.587 0.743278 141.758 0.743278C141.929 0.743278 142.113 0.743278 142.285 0.743278C142.456 0.743278 142.64 0.743278 142.811 0.743278H143.337C143.512 0.743278 143.687 0.743278 143.863 0.743278H144.389C154.094 0.982857 160.552 10.1553 158.769 21.6808Z" fill="url(#paint1_linear_0_1)"/>
<path d="M145.083 5.14108C144.846 4.97175 144.601 4.81467 144.348 4.67048C144.583 4.79882 144.831 4.95712 145.083 5.14108ZM143.8 4.37529C143.975 4.46085 144.142 4.55069 144.313 4.64909C144.232 4.61059 144.155 4.56352 144.078 4.52502L143.8 4.37529ZM141.559 3.54959C142.045 3.66854 142.522 3.82151 142.987 4.00736L143.295 4.13999C142.653 3.85693 141.984 3.63908 141.298 3.4897L141.559 3.54959ZM141.058 3.43836L140.913 3.41269L140.656 3.36991C140.874 3.39986 141.084 3.44691 141.298 3.4897H141.259L141.058 3.43836ZM143.539 4.25122H143.501L143.295 4.1571C143.462 4.2341 143.633 4.30684 143.796 4.38812L143.539 4.25122ZM140.117 3.2929H139.831L140.348 3.34852L140.656 3.3913C140.502 3.36135 140.348 3.33996 140.194 3.32285L140.117 3.2929ZM12.7224 290.283L12.8464 290.335H12.825L12.7224 290.283ZM12.5983 290.228H12.6197L12.4999 290.176L12.5983 290.228ZM12.4401 290.155L12.4999 290.181L12.3716 290.121L12.4401 290.155ZM10.2031 288.726C10.1641 288.697 10.127 288.666 10.0919 288.632L10.2031 288.726ZM9.39046 287.99L9.53588 288.131L9.38191 287.977L9.39046 287.99ZM5.8062 282.257L5.90458 282.518L5.96874 282.681L5.86609 282.407C5.8447 282.369 5.82759 282.309 5.8062 282.257ZM4.6086 277.41V277.5C4.6086 277.41 4.58293 277.312 4.57438 277.218C4.59149 277.282 4.60433 277.35 4.6086 277.41ZM4.50594 276.482C4.50594 276.482 4.50594 276.512 4.50594 276.525C4.50388 276.505 4.50388 276.485 4.50594 276.465V276.482ZM4.48028 276.14C4.47819 276.151 4.47819 276.162 4.48028 276.174C4.48028 276.062 4.48028 275.943 4.45462 275.827C4.46317 275.951 4.47173 276.033 4.48028 276.14ZM141.058 0.794428C140.746 0.751646 140.434 0.725981 140.117 0.70459C139.998 0.70459 139.869 0.70459 139.741 0.70459C139.613 0.70459 139.412 0.70459 139.249 0.70459C139.087 0.70459 139.052 0.70459 138.95 0.70459H138.351L56.1184 3.4298C54.7445 3.4811 53.3899 3.77062 52.115 4.28544C51.8797 4.37956 51.6402 4.47796 51.405 4.5892C50.5639 4.97844 49.7594 5.44234 49.0012 5.97533C48.7788 6.12507 48.5735 6.29192 48.3425 6.45877C48.1115 6.62562 47.9148 6.79674 47.6924 6.97643C47.3716 7.24596 47.0551 7.52832 46.7471 7.83207C42.9319 11.4685 40.0277 17.0174 39.1295 23.1694L38.3468 28.5428L3.04316 270.484C1.48628 281.128 6.28097 291.254 13.8515 293.128L30.2074 297.175L30.3271 297.205L93.4109 312.825C94.4178 313.078 95.4523 313.204 96.4904 313.202C104.249 313.18 111.251 305.929 112.769 295.498L152.744 21.4838C154.326 10.6172 149.147 1.85542 141.058 0.794428ZM152.534 18.4292V18.9255C152.534 19.0966 152.534 19.2634 152.504 19.4303C152.474 19.5971 152.478 19.7725 152.466 19.9394C152.436 20.2517 152.406 20.564 152.363 20.8849C152.34 21.0845 152.314 21.2856 152.286 21.4881L151.995 23.4689L112.645 293.423C112.338 295.552 111.763 297.634 110.934 299.618C110.875 299.764 110.815 299.909 110.75 300.046C110.686 300.183 110.622 300.337 110.554 300.474C110.485 300.611 110.455 300.688 110.404 300.791C110.25 301.103 110.092 301.411 109.925 301.71C109.857 301.847 109.78 301.98 109.707 302.108C109.634 302.237 109.493 302.472 109.382 302.652C109.271 302.831 109.236 302.891 109.159 303.007C109.082 303.122 109.001 303.255 108.916 303.379C108.693 303.717 108.454 304.051 108.206 304.376C108.129 304.474 108.052 304.577 107.97 304.675C107.889 304.774 107.791 304.902 107.697 305.009C107.603 305.116 107.517 305.227 107.423 305.334C107.329 305.441 107.239 305.548 107.141 305.651C107.042 305.753 106.952 305.86 106.85 305.963C106.662 306.168 106.46 306.365 106.259 306.553C105.951 306.848 105.639 307.131 105.314 307.409L105.023 307.644C104.801 307.815 104.596 307.982 104.348 308.145L104.048 308.35C103.719 308.573 103.381 308.778 103.039 308.966C102.928 309.035 102.812 309.095 102.697 309.154C102.466 309.274 102.23 309.385 101.999 309.492L101.653 309.646C101.277 309.805 100.896 309.946 100.511 310.074C100.412 310.111 100.31 310.143 100.207 310.168C100.088 310.207 99.9678 310.241 99.8437 310.271L99.4759 310.361C99.2022 310.421 98.9284 310.476 98.6504 310.519L98.3596 310.562C97.996 310.613 97.6324 310.643 97.2603 310.66H96.8754H96.4477C96.1953 310.66 95.9473 310.66 95.6906 310.618H95.5452H95.4768H95.4425H95.635H95.6906C95.8061 310.618 95.9216 310.618 96.0371 310.618C96.0739 310.624 96.1115 310.624 96.1483 310.618H97.0037C97.0492 310.622 97.095 310.622 97.1406 310.618H97.2774H97.3844H97.5811C97.6966 310.618 97.8035 310.618 97.9147 310.579L98.1757 310.541L98.3467 310.511H98.4494L98.5478 310.489H98.6076C98.6585 310.482 98.7086 310.471 98.7573 310.455H98.8172H98.86C99.1466 310.391 99.4288 310.318 99.7154 310.233C99.745 310.228 99.7738 310.219 99.801 310.207H99.8523C99.9164 310.207 99.9763 310.168 100.036 310.143H100.105L100.408 310.036L100.977 309.805H101.011C101.208 309.715 101.401 309.629 101.593 309.531C101.786 309.432 101.965 309.338 102.145 309.24C102.157 309.243 102.171 309.243 102.183 309.24C102.483 309.069 102.778 308.889 103.073 308.692C103.113 308.671 103.15 308.645 103.184 308.615C103.201 308.608 103.217 308.598 103.231 308.585L103.295 308.543L103.36 308.491C103.496 308.397 103.629 308.299 103.762 308.2C103.894 308.102 104.031 307.991 104.159 307.884C104.823 307.339 105.443 306.743 106.011 306.1L106.131 305.959L106.251 305.817C106.572 305.441 106.875 305.047 107.166 304.637C107.363 304.363 107.547 304.08 107.731 303.781C107.799 303.678 107.863 303.567 107.932 303.46L108 303.345L108.235 302.917L108.325 302.758C108.355 302.699 108.389 302.643 108.424 302.579C108.458 302.515 108.484 302.468 108.509 302.416C108.566 302.319 108.617 302.219 108.663 302.117C108.679 302.088 108.693 302.058 108.706 302.027L108.809 301.813C108.869 301.702 108.928 301.582 108.98 301.462C108.98 301.448 108.98 301.434 108.98 301.419C109.035 301.3 109.087 301.184 109.138 301.06L109.305 300.675C109.356 300.547 109.412 300.414 109.463 300.281C109.514 300.149 109.561 300.02 109.613 299.888C109.664 299.755 109.66 299.755 109.685 299.687C109.711 299.618 109.733 299.554 109.758 299.481L109.848 299.22C109.878 299.122 109.912 299.019 109.946 298.917C109.981 298.814 110.019 298.69 110.049 298.57C110.052 298.553 110.052 298.536 110.049 298.519C110.1 298.348 110.152 298.172 110.199 297.997C110.246 297.821 110.314 297.543 110.37 297.317C110.421 297.09 110.472 296.863 110.52 296.632C110.567 296.401 110.597 296.256 110.631 296.063C110.631 296.012 110.631 295.956 110.661 295.901C110.699 295.674 110.742 295.438 110.772 295.207L150.669 21.6721C150.742 21.1544 150.806 20.6325 150.845 20.1233C150.954 18.8694 150.954 17.6082 150.845 16.3543C150.849 16.3403 150.849 16.3254 150.845 16.3115C150.845 16.1746 150.815 16.0377 150.797 15.8836C150.78 15.7296 150.797 15.704 150.768 15.6141C150.733 15.3703 150.699 15.1307 150.661 14.8954L150.532 14.2066C150.507 14.0911 150.481 13.9756 150.46 13.8643C150.438 13.7531 150.404 13.6333 150.378 13.5221C150.381 13.4908 150.381 13.4593 150.378 13.428C150.378 13.3467 150.336 13.2697 150.314 13.1884C150.293 13.1282 150.276 13.0668 150.263 13.0044C150.263 12.9616 150.263 12.9189 150.224 12.8761L150.126 12.5466C150.028 12.2215 149.916 11.9049 149.801 11.5926C149.762 11.4942 149.724 11.3958 149.69 11.2974L149.63 11.1562C149.608 11.0963 149.583 11.0364 149.557 10.9808C149.514 10.8824 149.476 10.784 149.429 10.6856C149.343 10.4931 149.253 10.3006 149.159 10.1124C149.112 10.014 149.061 9.91555 149.01 9.81715C148.958 9.71876 148.907 9.62892 148.856 9.53907C148.831 9.48781 148.804 9.43783 148.774 9.38933C148.723 9.29521 148.667 9.20537 148.612 9.11125L148.496 8.91874L148.385 8.75189L148.342 8.68343C148.295 8.6107 148.248 8.53798 148.197 8.46525C148.187 8.44717 148.176 8.42999 148.163 8.41391C148.077 8.28984 147.987 8.1615 147.893 8.03743L147.791 7.89625L147.722 7.8064C147.689 7.76033 147.653 7.71607 147.615 7.67378L147.457 7.4727L147.333 7.32724L147.128 7.09194L147.012 6.96788C146.969 6.91654 146.922 6.8652 146.875 6.81814L146.709 6.64701L146.55 6.48871L146.49 6.4331L146.319 6.2748L146.127 6.09512L146.046 6.02667L145.862 5.86838L145.819 5.83843C145.742 5.77426 145.661 5.7058 145.579 5.64591C145.43 5.5304 145.284 5.42344 145.13 5.31221H145.1C144.863 5.14287 144.618 4.9858 144.365 4.84161C144.283 4.80311 144.206 4.75604 144.129 4.71754L143.851 4.56781L143.595 4.44802H143.556L143.351 4.3539C142.709 4.07084 142.039 3.85299 141.354 3.70361H141.315L141.114 3.66082L140.969 3.63515L140.712 3.59238C140.558 3.56243 140.404 3.54104 140.25 3.52392H140.173H139.886H139.711H139.386C139.138 3.52392 138.89 3.52392 138.633 3.52392L55.8318 6.06089C55.6137 6.06089 55.4041 6.06089 55.1817 6.10795L54.8694 6.14218C48.304 6.99782 42.1791 14.5018 40.8789 23.4218L4.67276 270.856C4.44876 272.372 4.37 273.907 4.43752 275.438C4.43752 275.438 4.43752 275.464 4.43752 275.472C4.43752 275.592 4.43752 275.712 4.43752 275.827C4.43752 275.943 4.43752 276.033 4.43752 276.14C4.43543 276.151 4.43543 276.162 4.43752 276.174C4.43752 276.272 4.43752 276.366 4.4589 276.465C4.4589 276.465 4.4589 276.495 4.4589 276.507C4.45679 276.529 4.45679 276.55 4.4589 276.572C4.4589 276.644 4.4589 276.713 4.48028 276.786C4.48215 276.807 4.48215 276.828 4.48028 276.85C4.48028 276.85 4.48028 276.85 4.48028 276.875C4.48028 276.982 4.50167 277.094 4.51877 277.201C4.53588 277.307 4.51878 277.333 4.54017 277.393V277.483C4.54017 277.59 4.57011 277.693 4.58294 277.795C4.58294 277.902 4.61288 278.005 4.63427 278.107C4.65565 278.21 4.68558 278.441 4.7198 278.604C4.7198 278.668 4.74119 278.728 4.75403 278.788V278.878C4.75403 278.955 4.78396 279.036 4.80107 279.113C4.80569 279.145 4.81285 279.176 4.82246 279.207C4.84385 279.318 4.8695 279.429 4.89517 279.541C4.92083 279.652 4.92511 279.665 4.93794 279.729C4.95077 279.793 4.99354 279.943 5.01921 280.046L5.0577 280.187C5.0577 280.247 5.08764 280.306 5.10047 280.362C5.11331 280.418 5.10047 280.401 5.10047 280.422L5.12614 280.508C5.12614 280.576 5.16463 280.64 5.18174 280.704L5.26301 280.978C5.37421 281.346 5.49825 281.714 5.63084 282.065C5.63084 282.12 5.66933 282.172 5.68644 282.219L5.78482 282.48L5.84898 282.642C6.38412 283.984 7.08842 285.252 7.94478 286.416C8.00038 286.493 8.06026 286.565 8.11586 286.638C8.35966 286.951 8.60774 287.25 8.86865 287.532L8.90714 287.575L8.9542 287.622L9.04829 287.725L9.22364 287.905L9.26215 287.939L9.40757 288.08C9.54444 288.208 9.67703 288.332 9.83529 288.456L9.88233 288.499C9.92083 288.525 9.95077 288.555 9.98926 288.585L10.0919 288.675L10.2416 288.794C10.3785 288.906 10.5196 289.017 10.6693 289.12L10.7506 289.175C10.8675 289.261 10.9873 289.342 11.1099 289.419L11.1954 289.479L11.559 289.697L11.6531 289.748L11.7044 289.778C11.884 289.881 12.068 289.975 12.2562 290.065L12.3246 290.099L12.3845 290.125L12.4828 290.172H12.5042C12.5684 290.206 12.6368 290.232 12.7095 290.262L12.6069 290.223L12.4871 290.181C12.2775 290.091 12.0594 290.001 11.8798 289.898C10.6385 289.261 9.51347 288.42 8.55214 287.408L8.33828 287.186C8.16292 286.993 7.98755 286.797 7.82074 286.591L7.59405 286.309C7.20483 285.821 6.84629 285.309 6.52049 284.777C6.45563 284.682 6.39567 284.583 6.34085 284.482C6.16121 284.187 5.99013 283.887 5.8276 283.579L5.67361 283.271L5.49825 282.912L5.33144 282.553L5.22023 282.309L5.08764 282.001C4.83101 281.38 4.60005 280.739 4.39475 280.084C4.35625 279.969 4.32203 279.849 4.28782 279.729C4.17661 279.365 4.07823 278.993 3.98841 278.612C3.95419 278.48 3.91998 278.343 3.89431 278.184C3.66014 277.15 3.4944 276.101 3.39816 275.044C3.39816 274.899 3.3725 274.753 3.35967 274.616C3.30407 273.876 3.27841 273.132 3.28697 272.379C3.28697 272.229 3.28697 272.075 3.28697 271.926C3.31552 270.85 3.40692 269.777 3.5607 268.713L39.1295 24.855L39.3904 23.071C39.4161 22.8856 39.446 22.7017 39.4802 22.5191C39.4802 22.3822 39.523 22.2453 39.5487 22.0913C39.6043 21.7876 39.6642 21.4924 39.7283 21.1972C39.7625 21.0432 39.7967 20.8849 39.8352 20.7351C39.8352 20.6538 39.8737 20.5726 39.8909 20.4913C39.908 20.41 39.9336 20.2988 39.9636 20.2004C39.9935 20.102 40.0448 19.8923 40.0876 19.734C40.1589 19.4659 40.2359 19.2007 40.3186 18.9383C40.3571 18.8057 40.3998 18.6773 40.4426 18.549C40.5666 18.1554 40.6992 17.7746 40.8447 17.3939C40.8874 17.2741 40.9387 17.1543 40.9815 17.0345L41.1569 16.6067L41.3109 16.243C41.3494 16.1403 41.3921 16.0462 41.4349 15.9478L41.5932 15.597L41.7172 15.3318C41.7813 15.2034 41.837 15.0751 41.9054 14.9424C42.0123 14.7243 42.1278 14.5146 42.2433 14.275L42.4272 13.9371C42.4956 13.8087 42.5683 13.6804 42.6411 13.552C43.1393 12.6708 43.6906 11.8208 44.292 11.0065C44.3776 10.891 44.4589 10.7798 44.5487 10.6685L44.8438 10.2878C45.0106 10.0867 45.1731 9.88561 45.3399 9.68881L45.8917 9.07275C46.0799 8.87168 46.2681 8.67488 46.4606 8.48236L46.7514 8.19572C46.9439 8.01603 47.1406 7.83207 47.3417 7.65239C47.5427 7.4727 47.7394 7.31013 47.9447 7.14328C48.15 6.97643 48.3724 6.81814 48.5606 6.66412L48.8772 6.43738C48.9798 6.36037 49.0867 6.29192 49.1894 6.21919L49.5102 6.00956L49.8352 5.80421C50.0448 5.67586 50.2629 5.55179 50.4854 5.432L50.7976 5.26515C50.8073 5.26189 50.8178 5.26189 50.8275 5.26515L51.144 5.10258C51.251 5.0598 51.3536 5.00846 51.4563 4.95712L51.8156 4.80738L52.1492 4.67476L52.4913 4.55069C52.6068 4.50791 52.718 4.46941 52.8335 4.43518C53.0645 4.35817 53.2912 4.28972 53.5221 4.23411L53.86 4.15282C54.1081 4.09863 54.3562 4.05157 54.6043 4.01164C54.801 3.98169 54.9978 3.9603 55.1945 3.93463L55.5538 3.90468H55.9131L138.851 1.2907H139.613C139.874 1.2907 140.13 1.2907 140.387 1.33776C140.519 1.33776 140.648 1.36343 140.772 1.38055C140.896 1.39766 141.033 1.41049 141.161 1.43188L141.537 1.49605L141.914 1.57306L142.282 1.6629L142.615 1.74847L142.688 1.76986C142.791 1.80408 142.898 1.83403 143 1.87254C143.103 1.91104 143.287 1.96666 143.428 2.02228L143.715 2.13351C143.928 2.21907 144.142 2.30891 144.352 2.41159C144.493 2.47148 144.63 2.54422 144.78 2.61695C144.929 2.68968 144.976 2.7239 145.079 2.77951C145.182 2.83513 145.293 2.90358 145.404 2.96776L145.72 3.16456C146.481 3.65465 147.184 4.22868 147.816 4.87584C147.899 4.95142 147.977 5.03139 148.052 5.11542C148.337 5.41226 148.607 5.72355 148.86 6.04806C148.975 6.18924 149.087 6.33898 149.189 6.47588C149.641 7.09033 150.043 7.73983 150.391 8.41819C150.46 8.54226 150.524 8.66205 150.579 8.78611C150.708 9.04281 150.827 9.30378 150.943 9.56903C151.003 9.70593 151.058 9.83855 151.11 9.97545C151.208 10.2065 151.298 10.4461 151.379 10.6814C151.422 10.8011 151.465 10.9252 151.503 11.045C151.576 11.276 151.653 11.507 151.717 11.7466C151.751 11.8579 151.785 11.9734 151.811 12.0932C151.922 12.4868 152.016 12.8889 152.098 13.2996C152.123 13.408 152.145 13.515 152.162 13.6205C152.239 14.0483 152.303 14.4462 152.359 14.8654C152.38 15.028 152.397 15.182 152.41 15.336C152.51 16.2623 152.551 17.194 152.534 18.1254C152.538 18.2195 152.538 18.3222 152.534 18.4292Z" fill="#C7C7C7"/>
<path d="M12.9186 290.364L12.6063 290.24C12.401 290.155 12.1786 290.056 11.9947 289.958C10.7432 289.322 9.60916 288.477 8.64141 287.459L8.43184 287.241C8.25647 287.044 8.08538 286.852 7.91429 286.647L7.6876 286.364C7.30021 285.874 6.94037 285.363 6.60977 284.833L6.43012 284.542C6.25476 284.246 6.08795 283.943 5.92542 283.635C5.86981 283.536 5.81849 283.434 5.76717 283.327L5.5918 282.967L5.425 282.604C5.3865 282.527 5.34801 282.445 5.31379 282.364C5.27957 282.283 5.22397 282.159 5.18548 282.052C4.926 281.436 4.6936 280.798 4.4883 280.139C4.44981 280.024 4.41559 279.904 4.38137 279.789C4.27017 279.421 4.17179 279.048 4.08197 278.672C4.04775 278.535 4.01353 278.398 3.98359 278.244C3.75325 277.21 3.58896 276.163 3.49172 275.108C3.49172 274.958 3.46178 274.813 3.45322 274.68C3.39762 273.945 3.37196 273.196 3.38052 272.443C3.38052 272.293 3.38052 272.139 3.38052 271.989C3.41102 270.914 3.50241 269.841 3.65425 268.776L39.2231 24.919C40.6859 14.8823 47.679 6.48848 55.0827 5.79541C48.4189 6.47564 42.123 14.0609 40.8013 23.1093L4.66793 270.856C3.39334 279.609 7.01182 287.977 12.9186 290.364Z" fill="url(#paint2_linear_0_1)"/>
<path d="M151.977 23.4686L112.627 293.423C112.32 295.552 111.745 297.633 110.916 299.618C110.856 299.763 110.796 299.909 110.732 300.046C110.668 300.183 110.604 300.328 110.535 300.474C110.467 300.619 110.437 300.688 110.385 300.79C110.231 301.103 110.073 301.411 109.911 301.71C109.834 301.843 109.761 301.98 109.688 302.108C109.616 302.236 109.474 302.472 109.363 302.651C109.252 302.831 109.218 302.891 109.141 303.006C109.064 303.122 108.983 303.255 108.897 303.379C108.67 303.717 108.435 304.05 108.187 304.371C108.11 304.474 108.033 304.576 107.952 304.675C107.87 304.773 107.772 304.897 107.678 305.009C107.584 305.12 107.494 305.231 107.404 305.334C107.314 305.436 107.216 305.548 107.122 305.65C107.028 305.753 106.93 305.86 106.831 305.963C106.64 306.168 106.443 306.365 106.241 306.553C105.933 306.848 105.621 307.126 105.296 307.409L105.005 307.64C104.782 307.815 104.577 307.982 104.329 308.149L104.03 308.35C103.7 308.572 103.362 308.778 103.02 308.966C102.909 309.03 102.794 309.09 102.678 309.15C102.447 309.274 102.216 309.385 101.981 309.492C101.865 309.543 101.75 309.599 101.634 309.642C101.262 309.806 100.881 309.949 100.492 310.07C100.39 310.108 100.291 310.134 100.189 310.164C100.086 310.194 99.9492 310.237 99.8252 310.266L99.4573 310.356C99.1836 310.416 98.9099 310.472 98.6318 310.515L98.341 310.557C97.9774 310.609 97.6096 310.639 97.2418 310.656H96.8568H96.4291C96.1768 310.656 95.9244 310.634 95.672 310.613L95.2871 310.57C102.558 311.327 109.38 304.726 110.788 295.062L150.685 21.5306C152.118 11.6908 147.22 3.78464 139.718 3.2627C148.076 3.74185 153.572 12.5293 151.977 23.4686Z" fill="url(#paint3_linear_0_1)"/>
<path d="M112.607 293.415L112.316 295.395C110.648 306.835 102.149 314.378 93.4966 312.239L13.9415 292.585C6.59763 290.771 1.92269 280.905 3.42825 270.569L3.68916 268.781C3.53732 269.846 3.44592 270.918 3.41542 271.994C3.41542 272.143 3.41542 272.297 3.41542 272.447C3.41542 273.2 3.41542 273.949 3.48813 274.685C3.48813 274.83 3.48813 274.976 3.52663 275.112C3.62387 276.167 3.78816 277.215 4.0185 278.248C4.04844 278.385 4.08266 278.522 4.11688 278.676C4.2067 279.053 4.30506 279.425 4.41627 279.793C4.45049 279.908 4.4847 280.028 4.5232 280.144C4.7285 280.803 4.9609 281.44 5.22038 282.056C5.25887 282.163 5.30591 282.266 5.34869 282.368C5.39146 282.471 5.4214 282.531 5.4599 282.608L5.62671 282.972L5.80206 283.331C5.85339 283.438 5.90473 283.541 5.96033 283.639C6.12286 283.947 6.28967 284.251 6.46503 284.546L6.64466 284.837C6.97527 285.367 7.33512 285.878 7.72251 286.368L7.9492 286.651C8.12029 286.856 8.29137 287.049 8.46673 287.245L8.67631 287.464C9.6367 288.477 10.7618 289.32 12.0039 289.958C12.205 290.056 12.4103 290.155 12.6156 290.24C12.8252 290.326 13.0433 290.407 13.2486 290.484L13.5779 290.595C13.7832 290.659 14.0057 290.719 14.2024 290.771L93.7874 310.288C94.0326 310.348 94.2765 310.399 94.5188 310.442L94.908 310.506C95.1176 310.536 95.3358 310.562 95.5325 310.579H95.6779C95.9303 310.604 96.1826 310.617 96.435 310.622H96.8627H97.2476C97.6155 310.622 97.9833 310.575 98.3469 310.523L98.6377 310.48C98.9157 310.438 99.1895 310.382 99.4632 310.322L99.831 310.232C99.9551 310.202 100.075 310.168 100.195 310.13C100.314 310.091 100.396 310.074 100.498 310.035C100.887 309.915 101.268 309.772 101.64 309.608C101.756 309.565 101.871 309.514 101.987 309.458C102.222 309.351 102.453 309.24 102.684 309.116C102.799 309.06 102.915 308.996 103.026 308.932C103.368 308.739 103.706 308.538 104.035 308.316L104.335 308.115C104.562 307.948 104.788 307.781 105.011 307.605C105.109 307.533 105.203 307.456 105.302 307.374C105.627 307.105 105.939 306.827 106.247 306.519C106.448 306.331 106.649 306.134 106.837 305.928C106.935 305.826 107.034 305.723 107.128 305.616C107.222 305.509 107.32 305.411 107.41 305.299C107.5 305.188 107.598 305.086 107.684 304.974C107.769 304.863 107.868 304.756 107.958 304.641C108.047 304.525 108.116 304.44 108.193 304.337C108.441 304.016 108.676 303.682 108.903 303.344C108.988 303.219 109.07 303.095 109.147 302.972C109.224 302.857 109.296 302.737 109.369 302.617C109.442 302.497 109.587 302.258 109.694 302.074C109.801 301.89 109.844 301.813 109.917 301.676C110.079 301.376 110.237 301.068 110.391 300.756C110.443 300.653 110.494 300.546 110.541 300.439C110.588 300.333 110.674 300.157 110.738 300.012C110.802 299.866 110.862 299.725 110.922 299.584C111.74 297.606 112.306 295.534 112.607 293.415Z" fill="url(#paint4_linear_0_1)"/>
<path d="M152.269 21.4879L151.978 23.4687C153.548 12.7005 148.253 4.01574 140.105 3.27561L139.715 3.24567H139.318C139.07 3.24567 138.826 3.24567 138.569 3.24567L55.7676 5.78691C55.5495 5.78691 55.3399 5.78692 55.1175 5.82542C47.7138 6.51849 40.7206 14.9123 39.2578 24.949L39.5187 23.1607C39.5444 22.9753 39.5743 22.7913 39.6085 22.6088C39.6085 22.4719 39.6513 22.335 39.677 22.181C39.7326 21.8815 39.7882 21.582 39.8566 21.2868L39.9593 20.8248C39.9807 20.7435 39.9978 20.6665 40.0191 20.5809C40.0405 20.4954 40.0662 20.3884 40.0919 20.29C40.1175 20.1916 40.1731 19.982 40.2159 19.828C40.2886 19.5584 40.3656 19.2932 40.4469 19.028C40.4854 18.8953 40.5281 18.767 40.5709 18.6386C40.6949 18.245 40.8275 17.8643 40.973 17.4835C41.02 17.3637 41.0671 17.2439 41.1098 17.1241C41.1526 17.0044 41.2253 16.829 41.2852 16.6963L41.4392 16.337C41.4819 16.2386 41.5204 16.1402 41.5675 16.0418L41.7215 15.6867C41.7642 15.5968 41.8027 15.5113 41.8455 15.4257L42.0337 15.0407C42.1406 14.8139 42.2561 14.5915 42.3716 14.369C42.4315 14.2578 42.4914 14.1465 42.5555 14.0353C42.6197 13.9241 42.6967 13.7743 42.7694 13.646C43.2676 12.7648 43.8189 11.9147 44.4203 11.1004C44.5059 10.9892 44.5872 10.8737 44.677 10.7625C44.7668 10.6512 44.8694 10.51 44.9721 10.386C45.1346 10.1806 45.3014 9.97956 45.4683 9.78276L46.02 9.1667C46.2082 8.96562 46.3964 8.76882 46.5889 8.5763L46.8797 8.29394C47.0722 8.1057 47.2689 7.92602 47.47 7.74633C47.671 7.56665 47.8677 7.40408 48.073 7.23723C48.2783 7.07038 48.5008 6.91208 48.6889 6.75807L49.0055 6.53132C49.1081 6.45432 49.215 6.38587 49.3177 6.31314L49.6385 6.1035L49.9635 5.89815C50.1774 5.76981 50.3913 5.64573 50.6137 5.52594L50.9259 5.3591H50.9558L51.2724 5.20508L51.5846 5.05535L51.9439 4.90561L52.2775 4.77298L52.6197 4.64892C52.7309 4.60614 52.8463 4.56763 52.9618 4.53341C53.1885 4.4564 53.4195 4.39222 53.6505 4.33233L53.9926 4.25104C54.2364 4.19543 54.4845 4.14836 54.7326 4.10986C54.9806 4.07136 55.1261 4.05425 55.3185 4.03286L55.6821 4.00291H56.0414L138.851 1.29053H139.613C139.874 1.29053 140.13 1.29053 140.387 1.33331L140.772 1.37609L141.157 1.43171C141.285 1.43171 141.413 1.47449 141.537 1.49588L141.91 1.57289L142.277 1.66273L142.611 1.75257H142.684C142.786 1.7868 142.893 1.81675 142.996 1.85525C143.099 1.89376 143.287 1.94937 143.424 2.00499L143.71 2.11622C143.924 2.20178 144.138 2.29591 144.343 2.3943C144.489 2.4542 144.626 2.52693 144.771 2.59966C144.916 2.67239 144.972 2.70661 145.07 2.76223C145.169 2.81785 145.288 2.88202 145.395 2.95047L145.712 3.14727C146.473 3.63602 147.177 4.21017 147.808 4.85855C147.891 4.93303 147.97 5.01307 148.043 5.09812C148.325 5.39332 148.595 5.70563 148.851 6.03078C148.967 6.17623 149.078 6.32169 149.185 6.4586C149.634 7.07416 150.034 7.72353 150.383 8.4009C150.451 8.52496 150.511 8.64475 150.571 8.76882C150.703 9.02979 150.823 9.29076 150.934 9.55173C150.994 9.68436 151.05 9.82126 151.101 9.95816C151.2 10.1892 151.285 10.4288 151.371 10.6641C151.413 10.7881 151.452 10.9079 151.495 11.0277C151.567 11.2587 151.644 11.4898 151.709 11.7293C151.743 11.8448 151.777 11.9561 151.803 12.0759C151.914 12.4695 152.008 12.8716 152.093 13.2823C152.093 13.3893 152.132 13.4962 152.153 13.6032C152.23 14.031 152.294 14.4289 152.346 14.8524C152.346 15.0064 152.389 15.1605 152.401 15.3187C152.498 16.2452 152.541 17.1766 152.53 18.1081C152.53 18.2065 152.53 18.3092 152.53 18.4162C152.53 18.5231 152.53 18.7499 152.53 18.9167C152.53 19.0836 152.53 19.2504 152.5 19.4215C152.47 19.5927 152.474 19.7638 152.461 19.9307C152.431 20.2472 152.397 20.5595 152.359 20.8761C152.33 21.0843 152.3 21.2883 152.269 21.4879Z" fill="url(#paint5_linear_0_1)"/>
<path d="M139.316 3.22852C139.072 3.22852 138.824 3.22852 138.568 3.22852L55.7662 5.76977C55.548 5.76977 55.3385 5.76977 55.1161 5.80827C48.418 6.47567 42.1221 14.0609 40.8004 23.1093L4.66701 270.856C3.38386 279.763 7.1392 288.272 13.2213 290.484L13.5507 290.595C13.756 290.66 13.9784 290.719 14.1751 290.771L93.7602 310.288C94.0054 310.348 94.2492 310.399 94.4915 310.442L94.8808 310.506C102.306 311.541 109.333 304.88 110.766 295.045L150.663 21.5136C152.139 11.5026 147.041 3.49376 139.316 3.22852ZM109.581 294.775C108.298 303.661 101.882 309.873 95.0647 308.932C94.9449 308.932 94.8209 308.898 94.6968 308.872C94.4744 308.833 94.2691 308.786 94.0253 308.731L14.4275 289.329C14.2307 289.282 14.0383 289.226 13.8458 289.166L13.5507 289.068C7.94332 287.044 4.5173 279.155 5.69352 271.1L41.844 23.1093C43.0502 14.8396 48.7602 7.8832 54.9236 7.25858H54.9535C55.1503 7.25858 55.3513 7.22863 55.5523 7.22435L138.337 4.79434C138.568 4.79434 138.799 4.79434 139.025 4.79434C146.138 5.05959 150.723 12.4095 149.393 21.5307L109.581 294.775Z" fill="#404040"/>
<path d="M149.394 21.6421L109.543 294.878C109.303 296.509 108.872 298.105 108.26 299.635C107.812 300.778 107.252 301.872 106.588 302.904C106.455 303.109 106.314 303.31 106.16 303.503C105.946 303.798 105.732 304.081 105.506 304.359C104.891 305.11 104.205 305.801 103.457 306.421C105.098 303.874 106.166 301.001 106.588 298.001L107.046 294.857C107.08 294.673 107.11 294.485 107.135 294.296L146.913 21.6507C146.939 21.4582 146.964 21.2657 146.986 21.0774L147.435 18.0014C147.909 15.0432 147.711 12.0161 146.853 9.14551C149.081 12.213 150.121 16.6923 149.394 21.6421Z" fill="url(#paint6_linear_0_1)"/>
<path d="M138.752 6.35596H138.697C138.504 6.35596 138.308 6.35596 138.111 6.35596L55.3394 8.67047C55.164 8.67047 54.9887 8.67046 54.8176 8.69613H54.7663H54.7406C49.1803 9.26941 43.9793 15.584 42.8843 23.0837L6.68251 271.314C5.61322 278.646 8.72697 285.804 13.8211 287.635L14.0649 287.716H14.0948C14.2659 287.768 14.4413 287.819 14.6166 287.862L94.2359 307.182C94.4369 307.229 94.6379 307.268 94.839 307.302H94.8774C94.9762 307.323 95.0762 307.339 95.1768 307.349C101.357 308.204 107.153 302.553 108.342 294.514L148.154 21.565C149.36 13.2695 145.202 6.60409 138.752 6.35596ZM105.151 293.766C104.836 296.146 103.861 298.392 102.337 300.247C102.26 300.337 102.183 300.418 102.106 300.504C101.875 300.757 101.631 300.999 101.374 301.227C101.152 301.423 100.921 301.612 100.686 301.783C100.394 301.995 100.088 302.188 99.7705 302.36C99.4624 302.527 99.1421 302.67 98.8124 302.788C98.6499 302.852 98.4873 302.904 98.3205 302.955C98.156 303.006 97.989 303.049 97.8201 303.083C97.4805 303.156 97.136 303.203 96.7893 303.225C96.3696 303.245 95.9489 303.229 95.5318 303.178H95.4164H95.3607H95.3222H95.2838H95.1768H95.0656L94.8432 303.131L15.1726 284.08L14.9802 284.028L14.7877 283.968H14.762H14.7321H14.6851L14.5867 283.93C10.8442 282.599 8.54734 277.346 9.33433 271.951L45.6303 23.0837C46.4301 17.6076 50.2025 13 54.2701 12.538H54.3386H54.4455C54.558 12.5321 54.6708 12.5321 54.7834 12.538L137.508 10.5144H137.987C138.015 10.5101 138.044 10.5101 138.072 10.5144C138.158 10.5171 138.244 10.5242 138.329 10.5358H138.445L138.671 10.5657C138.765 10.5657 138.855 10.5914 138.945 10.6085C139.075 10.629 139.203 10.6561 139.33 10.6898L139.403 10.7112L139.711 10.801L140.138 10.9636C140.257 11.0065 140.372 11.0565 140.485 11.1133C140.609 11.1692 140.731 11.2321 140.848 11.3016C141.089 11.427 141.321 11.57 141.541 11.7294C141.744 11.8767 141.938 12.0352 142.123 12.2043C142.162 12.2463 142.204 12.2863 142.247 12.324L142.474 12.5465C142.572 12.6449 142.662 12.7519 142.756 12.8588C142.936 13.077 143.111 13.2866 143.273 13.5391C143.361 13.6558 143.439 13.7788 143.509 13.907C143.586 14.0325 143.658 14.1608 143.727 14.292C144.021 14.8286 144.26 15.3933 144.441 15.9776C144.539 16.2814 144.616 16.5937 144.689 16.9103C144.762 17.2269 144.817 17.552 144.865 17.89C144.886 18.0568 144.903 18.2237 144.92 18.3905C144.95 18.7627 144.971 19.1349 144.971 19.5157C144.971 19.6697 144.971 19.8195 144.971 19.9735C144.957 20.5263 144.91 21.0777 144.83 21.6249L105.151 293.766Z" fill="black"/>
<path d="M67.0674 17.0441C67.0674 16.9711 67.0375 16.9023 67.0247 16.8293C67.023 16.8035 67.023 16.7777 67.0247 16.752C67.0289 16.8508 67.046 16.9496 67.0674 17.0441Z" fill="black"/>
<path d="M122.198 15.6353C122.184 15.663 122.171 15.6916 122.16 15.7208C122.122 15.7935 122.087 15.8706 122.045 15.9476L122.198 15.6353Z" fill="black"/>
<path d="M124.792 10.7671C124.065 10.8313 123.38 11.5543 123.175 12.4784C123.175 12.5597 123.145 12.6409 123.132 12.7222C123.072 13.0559 122.995 13.3896 122.906 13.7191C122.871 13.8346 122.841 13.9458 122.807 14.057C122.764 14.1939 122.722 14.3266 122.675 14.4592C122.628 14.5918 122.589 14.6988 122.546 14.8185L122.512 14.9041L122.478 14.994C122.478 15.0196 122.478 15.041 122.448 15.0667C122.43 15.1056 122.414 15.1456 122.401 15.1865C122.38 15.2293 122.362 15.2763 122.341 15.3191C122.298 15.4303 122.247 15.5373 122.2 15.6442L122.046 15.9566C122.048 15.9707 122.048 15.9852 122.046 15.9993C122.003 16.0892 121.956 16.1747 121.909 16.2603C121.862 16.3459 121.828 16.41 121.785 16.4828C121.774 16.5078 121.761 16.5321 121.747 16.5555L121.678 16.6667C121.651 16.7181 121.621 16.7681 121.588 16.8165V16.8593C121.577 16.8791 121.564 16.8977 121.55 16.9149C121.528 16.9491 121.511 16.9833 121.49 17.0133C121.469 17.0432 121.443 17.0903 121.417 17.1245L121.357 17.2186L121.319 17.27L121.246 17.3812C121.23 17.4072 121.211 17.4316 121.191 17.4539C121.169 17.495 121.143 17.5337 121.114 17.5694V17.5951C121.114 17.5951 121.114 17.5951 121.114 17.6165L121.028 17.7363L120.994 17.7833L120.895 17.9117L120.767 18.07C120.729 18.1264 120.686 18.1794 120.639 18.2283C120.614 18.2628 120.587 18.2956 120.557 18.3267C120.527 18.3643 120.494 18.4001 120.459 18.4336C120.433 18.4708 120.403 18.5052 120.369 18.5363C120.317 18.5979 120.261 18.6564 120.202 18.7117C120.163 18.7604 120.12 18.8062 120.074 18.8486L119.993 18.9299L119.8 19.1139L119.612 19.285L119.497 19.3834C119.455 19.4227 119.41 19.4599 119.364 19.4946L119.236 19.5973L119.176 19.6486L118.958 19.8112C118.902 19.8568 118.844 19.8983 118.782 19.9353C118.713 19.9882 118.64 20.0368 118.564 20.0807L118.479 20.1406L118.316 20.239C118.269 20.2701 118.221 20.2986 118.171 20.3246C118.128 20.3514 118.084 20.3757 118.038 20.3973L117.97 20.4358L117.91 20.4658C117.794 20.5257 117.688 20.5813 117.572 20.6283C117.457 20.6754 117.362 20.7225 117.26 20.761C117.157 20.7995 117.029 20.8508 116.918 20.885C116.689 20.9617 116.456 21.0246 116.22 21.0733C116.126 21.0733 116.028 21.1118 115.93 21.1246H115.87L115.622 21.1503L115.339 21.176H115.143L72.0161 21.8391H71.9348C71.8493 21.8391 71.7637 21.8391 71.6782 21.8391C71.6041 21.8432 71.5298 21.8432 71.4557 21.8391H71.4044C71.3189 21.8391 71.2333 21.8134 71.1478 21.8006C70.948 21.758 70.7509 21.7037 70.5575 21.638C70.4592 21.6081 70.3693 21.5696 70.271 21.531L70.0186 21.4113C69.9288 21.3685 69.8433 21.3171 69.7534 21.2658L69.7064 21.2359L69.6551 21.2016C69.6188 21.1838 69.5844 21.1623 69.5524 21.1375L69.4412 21.0604L69.3214 20.9663C69.2995 20.9517 69.2793 20.9345 69.2616 20.915C69.2035 20.8758 69.1491 20.8314 69.099 20.7824C69.0536 20.7485 69.012 20.7098 68.975 20.6668L68.8167 20.5171C68.8019 20.5032 68.7889 20.4874 68.7783 20.4701C68.7438 20.442 68.7122 20.4104 68.6842 20.3759C68.6506 20.3438 68.6192 20.3095 68.5901 20.2733L68.5131 20.1834L68.389 20.0251L68.2607 19.854L68.2094 19.7813C68.1798 19.7401 68.1526 19.6973 68.1281 19.6529C68.089 19.6005 68.0546 19.5447 68.0255 19.4861C68.0035 19.4584 67.9849 19.4282 67.9699 19.3962C67.9485 19.362 67.9271 19.3321 67.91 19.2978C67.8918 19.2678 67.876 19.2363 67.8629 19.2037C67.8467 19.1799 67.8338 19.154 67.8244 19.1267C67.7859 19.0497 67.7474 18.977 67.7132 18.9C67.6928 18.8615 67.6756 18.8215 67.6619 18.7802C67.6522 18.7673 67.645 18.7528 67.6405 18.7374C67.6405 18.7032 67.6106 18.6647 67.5935 18.6262V18.6048C67.5953 18.5963 67.5953 18.5875 67.5935 18.5791C67.5763 18.5467 67.5634 18.5121 67.555 18.4764C67.5425 18.4533 67.5324 18.4289 67.525 18.4037C67.525 18.3752 67.5122 18.3409 67.4865 18.301C67.4841 18.2854 67.4841 18.2695 67.4865 18.2539C67.4733 18.2262 67.4619 18.1976 67.4523 18.1684C67.4523 18.1342 67.431 18.0999 67.4181 18.0614C67.4053 18.0229 67.4181 18.0058 67.3882 17.9716C67.3895 17.9531 67.3895 17.9345 67.3882 17.916C67.3882 17.916 67.3882 17.8903 67.3882 17.8775C67.3708 17.8314 67.3565 17.7842 67.3454 17.7363C67.3454 17.7021 67.324 17.6721 67.3155 17.6336C67.3174 17.6108 67.3174 17.5879 67.3155 17.5652C67.3155 17.501 67.2812 17.4283 67.2641 17.3555C67.247 17.2828 67.2256 17.1972 67.2085 17.1159V17.0946C67.2061 17.0804 67.2061 17.0659 67.2085 17.0518C67.1871 16.9576 67.17 16.8593 67.1572 16.7609C67.1444 16.6625 67.123 16.5598 67.1144 16.4528C67.1124 16.4115 67.1124 16.3701 67.1144 16.3288V16.2132C67.112 16.1919 67.112 16.1704 67.1144 16.1491V16.0635C67.1144 16.0378 67.1144 16.0079 67.1144 15.9865C67.1144 15.871 67.1144 15.7598 67.0931 15.6442C67.0717 15.5287 67.0931 15.3918 67.0931 15.2635C67.0931 15.1608 67.0931 15.0539 67.0931 14.9426C67.0977 14.628 67.1191 14.3138 67.1572 14.0014C67.1618 13.9226 67.1703 13.8441 67.1829 13.7661C67.2427 12.9105 66.815 12.2473 66.1777 12.2174L124.792 10.7671Z" fill="black"/>
<path d="M71.6565 21.8687C71.742 21.8687 71.8276 21.8687 71.9131 21.8687H71.7677H71.618H71.4512C71.5196 21.8721 71.5881 21.8721 71.6565 21.8687Z" fill="black"/>
<path d="M115.741 21.1673H115.557C115.502 21.1736 115.446 21.1736 115.391 21.1673H115.232L115.515 21.1416L115.741 21.1673Z" fill="black"/>
<path d="M66.9739 16.4427C66.976 16.4062 66.976 16.3695 66.9739 16.333C66.9722 16.3696 66.9722 16.4062 66.9739 16.4427Z" fill="black"/>
<path d="M67.0674 17.0441C67.0674 16.9711 67.0375 16.9023 67.0247 16.8293C67.023 16.8035 67.023 16.7777 67.0247 16.752C67.0289 16.8508 67.046 16.9496 67.0674 17.0441Z" fill="black"/>
<path d="M67.5887 18.7283C67.5675 18.6899 67.5505 18.6431 67.5293 18.5962V18.6175C67.559 18.6558 67.5717 18.6942 67.5887 18.7283Z" fill="black"/>
<path d="M67.7771 19.1179C67.7496 19.0726 67.7254 19.0254 67.7047 18.9767C67.6888 18.9491 67.6746 18.9205 67.6621 18.8911C67.7004 18.9681 67.7388 19.0409 67.7771 19.1179Z" fill="black"/>
<path d="M67.8674 19.2885C67.8472 19.2592 67.8301 19.2278 67.8164 19.1948C67.8308 19.2274 67.8479 19.2588 67.8674 19.2885Z" fill="black"/>
<path d="M68.4691 20.1746C68.4264 20.1276 68.3836 20.072 68.3451 20.0206C68.3175 19.9889 68.2931 19.9545 68.2724 19.9179C68.2515 19.8956 68.2329 19.8712 68.2168 19.8452L68.3451 20.0163L68.4691 20.1746Z" fill="black"/>
<path d="M68.5469 20.2646C68.5754 20.3004 68.6062 20.3341 68.6391 20.3658L68.6098 20.3405L68.5469 20.2646Z" fill="black"/>
<path d="M68.9459 20.6604L68.8536 20.5803L68.7949 20.5171L68.9459 20.6604Z" fill="black"/>
<path d="M69.9988 21.399C69.9257 21.3603 69.8484 21.326 69.7754 21.2787L69.7324 21.2529C69.8054 21.3217 69.9086 21.3732 69.9988 21.399Z" fill="black"/>
<path d="M70.2328 21.5353C70.3312 21.5738 70.421 21.6123 70.5194 21.6423C70.4537 21.624 70.3894 21.6011 70.3269 21.5738L70.2328 21.5396L70.1088 21.4797C70.0644 21.4618 70.0215 21.4403 69.9805 21.4155L70.2328 21.5353Z" fill="black"/>
<path d="M71.1254 21.8261C71.2109 21.8261 71.2965 21.8561 71.382 21.8646C71.3056 21.8598 71.2298 21.8484 71.1553 21.8304C71.1553 21.8304 71.134 21.8304 71.1254 21.8304L71.027 21.8047C70.959 21.7936 70.8919 21.7779 70.826 21.7577L70.5736 21.6807H70.5352C70.7289 21.7406 70.926 21.7892 71.1254 21.8261Z" fill="black"/>
<path d="M71.6546 21.8687H71.5572H71.4512C71.519 21.8721 71.5869 21.8721 71.6546 21.8687Z" fill="black"/>
<path d="M115.142 21.2227H115.052L72.0969 21.8858H72.0156L115.142 21.2227Z" fill="black"/>
<path d="M115.492 21.1928L115.741 21.167H115.621H115.514L115.492 21.1928Z" fill="black"/>
<path d="M116.092 21.1072C116.328 21.0585 116.56 20.9956 116.789 20.9189L116.737 20.9403L116.438 21.0259C116.363 21.0505 116.285 21.0691 116.207 21.0815L116.092 21.1115H116.057C115.972 21.1115 115.886 21.1457 115.801 21.1542C115.899 21.1457 115.998 21.1243 116.092 21.1072Z" fill="black"/>
<path d="M117.443 20.6621C117.391 20.6907 117.337 20.715 117.281 20.7348L117.131 20.799L117.016 20.8418L116.789 20.9188C116.9 20.8846 117.016 20.8418 117.131 20.7947C117.247 20.7477 117.337 20.7092 117.443 20.6621Z" fill="black"/>
<path d="M117.443 20.6626C117.559 20.6155 117.666 20.5599 117.781 20.5L117.709 20.5428C117.622 20.5873 117.534 20.6273 117.443 20.6626Z" fill="black"/>
<path d="M118.852 19.8357L119.068 19.6738L118.987 19.742L118.852 19.8357Z" fill="black"/>
<path d="M119.393 19.4043L119.3 19.4895L119.262 19.5151C119.307 19.4805 119.351 19.4435 119.393 19.4043Z" fill="black"/>
<path d="M119.89 18.9512L119.809 19.0325L119.698 19.1394C119.634 19.195 119.574 19.2549 119.51 19.3063L119.698 19.1351L119.89 18.9512Z" fill="black"/>
<path d="M120.539 18.2495C120.513 18.2837 120.485 18.3161 120.455 18.3465C120.484 18.3159 120.51 18.2835 120.535 18.2495H120.539Z" fill="black"/>
<path d="M120.802 17.9243L120.731 18.0128L120.672 18.0802L120.798 17.9243H120.802Z" fill="black"/>
<path d="M121.043 17.6079L120.938 17.7479L121.022 17.6291C121.022 17.6291 121.035 17.6164 121.043 17.6079Z" fill="black"/>
<path d="M122.198 15.6353C122.184 15.663 122.171 15.6916 122.16 15.7208C122.122 15.7935 122.087 15.8706 122.045 15.9476L122.198 15.6353Z" fill="black"/>
<path d="M122.412 15.1777L122.361 15.2975C122.361 15.2676 122.378 15.2205 122.412 15.1777Z" fill="black"/>
<path d="M107.016 294.857L106.589 298.001C106.175 300.994 105.119 303.862 103.492 306.408C101.033 308.431 98.0813 309.403 95.0573 309.009C94.9337 308.994 94.8109 308.973 94.6895 308.945C94.4671 308.911 94.2618 308.863 94.018 308.808L14.3987 289.398C14.2063 289.351 14.0095 289.295 13.8213 289.235L13.5219 289.137C13.3851 289.085 13.2425 289.03 13.0942 288.97C10.7717 287.999 8.85128 286.005 7.53392 283.408C6.8948 280.638 6.78019 277.772 7.19602 274.959L7.68362 271.609C7.12759 275.434 7.83759 279.207 9.42441 282.013C10.5707 284.05 12.1832 285.582 14.1079 286.27C14.1683 286.298 14.2313 286.32 14.2961 286.334H14.3218H14.3517C14.5057 286.386 14.6639 286.429 14.8222 286.467L94.4585 305.685C94.6339 305.728 94.8178 305.762 94.9975 305.792H95.0359H95.0659C95.1476 305.81 95.2305 305.823 95.314 305.83C100.707 306.579 105.793 301.792 107.016 294.857Z" fill="url(#paint7_linear_0_1)"/>
<path d="M149.407 21.5607V21.5308C150.737 12.4096 146.152 5.05968 139.039 4.79443C138.817 4.79443 138.586 4.79443 138.351 4.79443L55.5663 7.22445C55.3653 7.22445 55.1643 7.22445 54.9675 7.25868H54.9376C54.6852 7.28434 54.4329 7.31857 54.1848 7.36563C51.6442 7.83623 49.2148 9.35927 47.1831 11.5754C45.7806 14.1031 44.8487 16.8645 44.4329 19.7254L43.9453 23.0795C44.4518 19.4218 46.0842 16.0126 48.616 13.3252C50.361 11.5497 52.4312 10.3818 54.574 10.155H54.6254H54.6981C54.8606 10.155 55.006 10.1336 55.1258 10.1336L137.88 7.92607H138.458C144.095 8.15282 147.778 13.8471 146.965 21.0003L147.414 17.9242C147.884 14.9673 147.685 11.9426 146.832 9.07264C149.095 12.1273 150.134 16.5894 149.407 21.5607Z" fill="url(#paint8_linear_0_1)"/>
<path d="M7.5368 283.344C5.77889 279.96 5.02183 275.553 5.67195 271.082L41.8439 23.1093C42.4385 18.8179 44.2899 14.7987 47.1646 11.5581C45.7653 14.0869 44.835 16.848 44.4187 19.7081L7.20745 274.881C6.78669 277.698 6.89841 280.568 7.5368 283.344Z" fill="url(#paint9_linear_0_1)"/>
<path d="M149.41 21.5695L109.582 294.805C109.341 296.437 108.91 298.035 108.298 299.567C107.845 300.706 107.28 301.798 106.613 302.827C106.481 303.032 106.339 303.229 106.185 303.426C105.976 303.721 105.758 304.004 105.531 304.282C104.915 305.047 104.221 305.747 103.461 306.369V306.344C105.098 303.797 106.165 300.927 106.588 297.929L147.426 17.9288C147.896 14.9718 147.698 11.947 146.844 9.07715C149.098 12.1403 150.138 16.5982 149.41 21.5695Z" fill="url(#paint10_linear_0_1)"/>
<path d="M100.24 14.3561L88.1655 14.6171C87.8618 14.6171 87.6651 14.309 87.7378 13.9112L87.7891 13.5432C87.8012 13.3665 87.8716 13.1988 87.9893 13.0664C88.1069 12.934 88.2652 12.8444 88.4393 12.8117L100.518 12.5293C100.826 12.5293 101.031 12.8416 100.971 13.2438L100.916 13.616C100.903 13.7974 100.829 13.9691 100.706 14.1034C100.584 14.2377 100.419 14.3267 100.24 14.3561Z" fill="url(#paint11_linear_0_1)"/>
<path d="M144.851 21.5992L105.15 293.766C104.836 296.146 103.861 298.392 102.336 300.247C102.259 300.337 102.182 300.418 102.105 300.504C101.866 300.76 101.626 301.004 101.374 301.227C101.121 301.449 100.92 301.612 100.685 301.783C100.393 301.995 100.087 302.188 99.7698 302.36C99.4604 302.524 99.1403 302.667 98.8117 302.788C98.6492 302.848 98.4866 302.9 98.3198 302.955C98.1573 303.006 97.9862 303.045 97.8194 303.083C97.4795 303.154 97.1351 303.201 96.7886 303.225C96.3689 303.245 95.9482 303.229 95.5312 303.178H95.4157H95.3601H95.3045L95.189 303.152H95.0778L94.8554 303.105L15.172 284.08L14.9795 284.028L14.787 283.973H14.7357H14.71L14.6116 283.934C10.8691 282.604 8.5723 277.35 9.3593 271.955L45.6552 23.088C46.4551 17.6119 50.2275 13.0043 54.2951 12.5423H54.3635H54.4705C54.583 12.5364 54.6958 12.5364 54.8084 12.5423L66.0059 12.2685C66.6432 12.2984 67.071 12.9572 67.0111 13.8172C67.0111 13.8771 67.0111 13.937 66.9897 13.9968V14.0225C66.9897 14.0225 66.9897 14.0225 66.9897 14.0525C66.9516 14.3648 66.9302 14.679 66.9255 14.9937C66.9255 15.1049 66.9255 15.2119 66.9255 15.3145C66.9255 15.4429 66.9255 15.5712 66.9255 15.6953C66.9255 15.8194 66.9255 15.922 66.9469 16.0376C66.9469 16.0376 66.9469 16.0889 66.9469 16.1146V16.2001C66.9445 16.2214 66.9445 16.243 66.9469 16.2643V16.3798C66.949 16.4169 66.949 16.454 66.9469 16.491C66.9469 16.598 66.9726 16.6964 66.9897 16.7991C67.0068 16.9017 67.0196 16.9959 67.041 17.09C67.0386 17.1041 67.0386 17.1186 67.041 17.1328V17.1199C67.041 17.2012 67.0795 17.2825 67.0966 17.3595C67.1137 17.4365 67.1308 17.505 67.1479 17.5691C67.1499 17.5919 67.1499 17.6148 67.1479 17.6376C67.1479 17.6761 67.1479 17.706 67.1779 17.7403C67.189 17.7882 67.2033 17.8354 67.2206 17.8815C67.2206 17.8815 67.2206 17.9071 67.2206 17.92C67.2219 17.9385 67.2219 17.9571 67.2206 17.9756C67.2206 18.0098 67.242 18.0398 67.2506 18.0654C67.2591 18.0911 67.272 18.1382 67.2848 18.1724C67.2944 18.2016 67.3058 18.2302 67.319 18.2579C67.3166 18.2735 67.3166 18.2894 67.319 18.305C67.319 18.3421 67.3319 18.3763 67.3575 18.4077C67.3649 18.4329 67.3749 18.4573 67.3875 18.4804C67.3958 18.5161 67.4088 18.5506 67.426 18.5831C67.4278 18.5915 67.4278 18.6003 67.426 18.6087V18.6301C67.426 18.6686 67.4559 18.7071 67.473 18.7414C67.4775 18.7568 67.4847 18.7713 67.4944 18.7842C67.5081 18.8255 67.5253 18.8655 67.5457 18.9039C67.5559 18.9336 67.5688 18.9622 67.5842 18.9895C67.605 19.0382 67.6293 19.0854 67.6569 19.1307C67.6663 19.158 67.6792 19.1839 67.6954 19.2077C67.7085 19.2403 67.7243 19.2718 67.7425 19.3018C67.7425 19.336 67.781 19.366 67.8024 19.4002C67.8174 19.4322 67.836 19.4624 67.858 19.4901C67.8871 19.5486 67.9215 19.6045 67.9606 19.6569C67.9851 19.7013 68.0123 19.7441 68.0419 19.7853L68.0932 19.858C68.1093 19.884 68.1279 19.9084 68.1488 19.9307C68.1707 19.9652 68.195 19.9981 68.2215 20.0291C68.26 20.0805 68.3028 20.1361 68.3455 20.1831L68.4225 20.273L68.4867 20.35L68.5166 20.3756C68.5447 20.4102 68.5762 20.4417 68.6107 20.4698C68.6214 20.4871 68.6343 20.5029 68.6492 20.5168L68.7091 20.581L68.8032 20.6623C68.8402 20.7052 68.8818 20.7439 68.9272 20.7778C68.9773 20.8268 69.0317 20.8712 69.0898 20.9104C69.1075 20.9299 69.1277 20.9472 69.1497 20.9618L69.2694 21.0559L69.3806 21.1329C69.4126 21.1577 69.447 21.1792 69.4833 21.1971C69.4979 21.2118 69.5154 21.2235 69.5346 21.2313L69.5816 21.2612C69.5958 21.2723 69.6117 21.2809 69.6287 21.2869C69.7014 21.334 69.7784 21.3682 69.8511 21.4067C69.8921 21.4315 69.935 21.4529 69.9794 21.4709L70.1035 21.5265L70.1976 21.5607C70.26 21.588 70.3244 21.6108 70.39 21.6292H70.4285L70.6809 21.7062C70.7467 21.7264 70.8139 21.7421 70.8819 21.7532H70.9803C70.9803 21.7532 70.9803 21.7532 71.0102 21.7532C71.0846 21.7712 71.1605 21.7827 71.2369 21.7875H71.2882H71.3952H71.455H71.6047C71.6802 21.7939 71.756 21.7939 71.8314 21.7875H71.9127L114.868 21.1243H115.142C115.224 21.1307 115.307 21.1307 115.39 21.1243C115.445 21.1307 115.501 21.1307 115.557 21.1243H115.621H115.741H115.801C115.886 21.1243 115.972 21.0987 116.057 21.0815H116.091L116.207 21.0559C116.285 21.0434 116.362 21.0248 116.438 21.0003L116.737 20.9147L116.789 20.8933L117.015 20.8163L117.131 20.7735C117.182 20.7573 117.232 20.7373 117.28 20.7136C117.337 20.6938 117.391 20.6695 117.443 20.6409C117.533 20.6126 117.622 20.5798 117.708 20.5425C117.729 20.5351 117.749 20.5251 117.768 20.5125L117.828 20.4826L117.896 20.4441C117.942 20.4224 117.986 20.3981 118.029 20.3714C118.079 20.3454 118.127 20.3168 118.174 20.2858L118.337 20.1874L118.422 20.1275C118.498 20.0835 118.571 20.035 118.641 19.9821C118.702 19.945 118.761 19.9036 118.816 19.858L118.944 19.7681L119.026 19.6997L119.085 19.6484L119.214 19.5457L119.252 19.52L119.346 19.4344L119.462 19.336C119.526 19.2847 119.586 19.2248 119.65 19.1692L119.761 19.0665L119.842 18.9852L119.924 18.9039C119.97 18.8615 120.013 18.8158 120.052 18.767C120.111 18.7118 120.167 18.6532 120.219 18.5916C120.252 18.5606 120.282 18.5261 120.309 18.489C120.344 18.4554 120.377 18.4197 120.407 18.382C120.436 18.351 120.463 18.3181 120.488 18.2836C120.536 18.2347 120.579 18.1818 120.617 18.1253L120.677 18.0569C120.702 18.0288 120.725 17.9987 120.745 17.967L120.843 17.8387L120.878 17.7916L120.963 17.6718C120.963 17.6718 120.963 17.6718 120.963 17.6504V17.6248C120.993 17.589 121.018 17.5503 121.04 17.5093C121.061 17.4869 121.08 17.4625 121.096 17.4365L121.168 17.3253L121.207 17.274L121.267 17.1798C121.292 17.1456 121.314 17.1071 121.339 17.0686C121.365 17.0301 121.378 17.0044 121.399 16.9702C121.414 16.953 121.427 16.9344 121.438 16.9146V16.8718C121.47 16.8234 121.5 16.7735 121.528 16.7221L121.596 16.6108C121.611 16.5875 121.623 16.5632 121.635 16.5381C121.677 16.4654 121.72 16.3926 121.759 16.3156C121.797 16.2386 121.853 16.1445 121.896 16.0547C121.898 16.0405 121.898 16.026 121.896 16.0119L122.05 15.6996C122.097 15.5926 122.148 15.4857 122.191 15.3744L122.242 15.2546C122.255 15.2137 122.271 15.1737 122.289 15.1349C122.289 15.1092 122.289 15.0878 122.319 15.0621L122.353 14.9723L122.387 14.8867C122.43 14.7669 122.477 14.6471 122.516 14.5273C122.554 14.4076 122.606 14.2621 122.648 14.1252C122.683 14.014 122.712 13.9027 122.747 13.7872C122.837 13.4578 122.913 13.1241 122.973 12.7904C122.975 12.7791 122.975 12.7675 122.973 12.7562V12.7305C122.973 12.6706 122.973 12.6064 123.003 12.5465C123.209 11.6353 123.893 10.9123 124.62 10.8353L137.336 10.5229H137.926C138.004 10.5258 138.081 10.533 138.157 10.5443H138.273L138.499 10.5743L138.773 10.6171L139.158 10.6984L139.231 10.7197L139.539 10.8096L139.967 10.9722L140.313 11.1219C140.437 11.1818 140.561 11.246 140.677 11.3101C140.915 11.4397 141.147 11.5826 141.369 11.738C141.566 11.8877 141.763 12.0417 141.951 12.2128C141.99 12.2549 142.032 12.2949 142.075 12.3326L142.302 12.5551L142.584 12.8674C142.764 13.0856 142.939 13.2952 143.102 13.5476C143.183 13.6674 143.264 13.7915 143.337 13.9156C143.41 14.0396 143.487 14.168 143.555 14.3006C143.845 14.8393 144.084 15.4035 144.269 15.9862C144.368 16.29 144.445 16.6023 144.517 16.9189C144.59 17.2354 144.646 17.5606 144.693 17.8986C144.714 18.0654 144.731 18.2323 144.748 18.3991C144.778 18.7713 144.8 19.1435 144.8 19.5243C144.8 19.674 144.8 19.828 144.8 19.9821C144.848 20.5196 144.865 21.0596 144.851 21.5992Z" fill="url(#paint12_linear_0_1)"/>
<defs>
<linearGradient id="paint0_linear_0_1" x1="99.4492" y1="157.034" x2="162.315" y2="157.034" gradientUnits="userSpaceOnUse">
<stop stop-color="#333333"/>
<stop offset="0.37" stop-color="#848484"/>
<stop offset="0.66" stop-color="#BFBFBF"/>
<stop offset="0.88" stop-color="#E3E3E3"/>
<stop offset="1" stop-color="#F1F1F1"/>
</linearGradient>
<linearGradient id="paint1_linear_0_1" x1="77.4727" y1="312.963" x2="81.7364" y2="-0.138381" gradientUnits="userSpaceOnUse">
<stop stop-color="#F1F1F1"/>
<stop offset="0.43" stop-color="#EFEFEF"/>
<stop offset="0.62" stop-color="#E8E8E8"/>
<stop offset="0.76" stop-color="#DBDBDB"/>
<stop offset="0.88" stop-color="#C9C9C9"/>
<stop offset="0.98" stop-color="#B2B2B2"/>
<stop offset="1" stop-color="#ACACAC"/>
</linearGradient>
<linearGradient id="paint2_linear_0_1" x1="21.8556" y1="145.684" x2="23.435" y2="145.907" gradientUnits="userSpaceOnUse">
<stop stop-color="#666666"/>
<stop offset="0.06" stop-color="#727272"/>
<stop offset="0.33" stop-color="#A8A8A8"/>
<stop offset="0.57" stop-color="#D0D0D0"/>
<stop offset="0.76" stop-color="#E8E8E8"/>
<stop offset="0.87" stop-color="#F1F1F1"/>
<stop offset="0.95" stop-color="#F7F7F7"/>
<stop offset="1" stop-color="white"/>
</linearGradient>
<linearGradient id="paint3_linear_0_1" x1="131.76" y1="158.098" x2="133.577" y2="158.355" gradientUnits="userSpaceOnUse">
<stop stop-color="white"/>
<stop offset="0.05" stop-color="#F7F7F7"/>
<stop offset="0.13" stop-color="#F1F1F1"/>
<stop offset="0.24" stop-color="#E8E8E8"/>
<stop offset="0.43" stop-color="#D0D0D0"/>
<stop offset="0.67" stop-color="#A8A8A8"/>
<stop offset="0.94" stop-color="#727272"/>
<stop offset="1" stop-color="#666666"/>
</linearGradient>
<linearGradient id="paint4_linear_0_1" x1="55.3811" y1="306.097" x2="58.7887" y2="282.006" gradientUnits="userSpaceOnUse">
<stop stop-color="#F1F1F1"/>
<stop offset="0.12" stop-color="#E3E3E3"/>
<stop offset="0.34" stop-color="#BFBFBF"/>
<stop offset="0.63" stop-color="#848484"/>
<stop offset="1" stop-color="#333333"/>
</linearGradient>
<linearGradient id="paint5_linear_0_1" x1="96.1389" y1="23.3693" x2="101.419" y2="-13.9571" gradientUnits="userSpaceOnUse">
<stop stop-color="#333333"/>
<stop offset="0.07" stop-color="#4C4C4C"/>
<stop offset="0.25" stop-color="#828282"/>
<stop offset="0.42" stop-color="#AFAFAF"/>
<stop offset="0.59" stop-color="#D2D2D2"/>
<stop offset="0.74" stop-color="#EBEBEB"/>
<stop offset="0.89" stop-color="#FAFAFA"/>
<stop offset="1" stop-color="white"/>
</linearGradient>
<linearGradient id="paint6_linear_0_1" x1="125.394" y1="156.999" x2="130.544" y2="157.727" gradientUnits="userSpaceOnUse">
<stop stop-color="#F0F0F0"/>
<stop offset="0.14" stop-color="#B7B7B7"/>
<stop offset="0.27" stop-color="#888888"/>
<stop offset="0.4" stop-color="#636363"/>
<stop offset="0.51" stop-color="#494949"/>
<stop offset="0.62" stop-color="#393939"/>
<stop offset="0.7" stop-color="#333333"/>
</linearGradient>
<linearGradient id="paint7_linear_0_1" x1="6.8018" y1="283.263" x2="107.433" y2="297.49" gradientUnits="userSpaceOnUse">
<stop/>
<stop offset="0.1" stop-color="#141414"/>
<stop offset="0.26" stop-color="#2C2C2C"/>
<stop offset="0.4" stop-color="#3B3B3B"/>
<stop offset="0.52" stop-color="#404040"/>
<stop offset="0.63" stop-color="#393939"/>
<stop offset="0.79" stop-color="#242424"/>
<stop offset="0.99" stop-color="#020202"/>
<stop offset="1"/>
</linearGradient>
<linearGradient id="paint8_linear_0_1" x1="46.6507" y1="6.84348" x2="149.822" y2="21.4299" gradientUnits="userSpaceOnUse">
<stop/>
<stop offset="0.1" stop-color="#141414"/>
<stop offset="0.26" stop-color="#2C2C2C"/>
<stop offset="0.4" stop-color="#3B3B3B"/>
<stop offset="0.52" stop-color="#404040"/>
<stop offset="0.63" stop-color="#393939"/>
<stop offset="0.79" stop-color="#242424"/>
<stop offset="0.99" stop-color="#020202"/>
<stop offset="1"/>
</linearGradient>
<linearGradient id="paint9_linear_0_1" x1="24.0876" y1="146.324" x2="26.6579" y2="146.687" gradientUnits="userSpaceOnUse">
<stop stop-color="#404040"/>
<stop offset="0.64" stop-color="#1A1A1A"/>
<stop offset="1" stop-color="#0A0A0A"/>
</linearGradient>
<linearGradient id="paint10_linear_0_1" x1="125.393" y1="156.943" x2="130.559" y2="157.673" gradientUnits="userSpaceOnUse">
<stop stop-color="#0A0A0A"/>
<stop offset="0.36" stop-color="#1A1A1A"/>
<stop offset="1" stop-color="#404040"/>
</linearGradient>
<linearGradient id="paint11_linear_0_1" x1="88.389" y1="12.0043" x2="101.266" y2="13.8249" gradientUnits="userSpaceOnUse">
<stop stop-color="#333333"/>
<stop offset="0.09" stop-color="#2B2B2B"/>
<stop offset="0.29" stop-color="#1E1E1E"/>
<stop offset="0.48" stop-color="#1A1A1A"/>
<stop offset="0.79" stop-color="#1C1C1C"/>
<stop offset="0.9" stop-color="#232323"/>
<stop offset="0.98" stop-color="#2E2E2E"/>
<stop offset="1" stop-color="#333333"/>
</linearGradient>
<linearGradient id="paint12_linear_0_1" x1="4.25563" y1="48.7138" x2="160.682" y2="256.618" gradientUnits="userSpaceOnUse">
<stop stop-color="#F2F3F4"/>
<stop offset="0.36" stop-color="#EDEEEF"/>
<stop offset="0.78" stop-color="#DFE0E0"/>
<stop offset="1" stop-color="#D5D6D6"/>
</linearGradient>
</defs>
</svg>
