<svg width="115" height="29" viewBox="0 0 115 29" fill="none" xmlns="http://www.w3.org/2000/svg">
<path fill-rule="evenodd" clip-rule="evenodd" d="M14.4957 0C6.49046 0 0 6.49046 0 14.4957C0 22.501 6.49046 28.9915 14.4957 28.9915C22.501 28.9915 28.9915 22.501 28.9915 14.4957C28.9915 6.49046 22.501 0 14.4957 0ZM14.496 2.41597C21.1568 2.41597 26.5758 7.83496 26.5758 14.4957C26.5758 21.1565 21.1568 26.5755 14.496 26.5755C7.83523 26.5755 2.41625 21.1565 2.41625 14.4957C2.41625 7.83496 7.83523 2.41597 14.496 2.41597ZM9.66411 12.0798H12.0801V10.0359C12.0801 8.20458 13.044 7.24786 15.216 7.24786H18.12V10.2678H16.378C15.82 10.2678 15.704 10.4961 15.704 11.0735V12.0798H18.12L17.9025 14.4957H15.704V21.7436H12.0801V14.4957H9.66411V12.0798Z" fill="#979797"/>
<path fill-rule="evenodd" clip-rule="evenodd" d="M57.4872 0C49.4819 0 42.9915 6.49046 42.9915 14.4957C42.9915 22.501 49.4819 28.9915 57.4872 28.9915C65.4924 28.9915 71.9829 22.501 71.9829 14.4957C71.9829 6.49046 65.4924 0 57.4872 0ZM57.4875 2.41597C64.1483 2.41597 69.5672 7.83496 69.5672 14.4957C69.5672 21.1565 64.1483 26.5755 57.4875 26.5755C50.8267 26.5755 45.4077 21.1565 45.4077 14.4957C45.4077 7.83496 50.8267 2.41597 57.4875 2.41597ZM63.6312 11.0723C64.2328 10.9998 64.8066 10.8404 65.3393 10.6036C64.9407 11.2004 64.437 11.7246 63.8547 12.1426C64.0432 16.3258 60.9242 20.9898 55.4013 20.9898C53.7222 20.9898 52.1603 20.4982 50.8436 19.6538C52.4224 19.8398 53.9964 19.4013 55.2491 18.4204C53.9493 18.3963 52.8488 17.5374 52.4707 16.356C52.937 16.4454 53.3961 16.4188 53.814 16.3053C52.3838 16.0178 51.3956 14.7289 51.4283 13.3518C51.8293 13.574 52.2871 13.7081 52.7739 13.7238C51.45 12.8384 51.0743 11.0892 51.8535 9.75321C53.32 11.5519 55.5124 12.7357 57.9827 12.8601C57.5491 10.9998 58.96 9.20841 60.8807 9.20841C61.7347 9.20841 62.509 9.5696 63.0502 10.1482C63.7279 10.0153 64.3645 9.7677 64.9395 9.42706C64.716 10.1216 64.2461 10.7039 63.6312 11.0723Z" fill="#979797"/>
<path fill-rule="evenodd" clip-rule="evenodd" d="M100.479 0C92.4734 0 85.9829 6.49046 85.9829 14.4957C85.9829 22.501 92.4734 28.9915 100.479 28.9915C108.484 28.9915 114.974 22.501 114.974 14.4957C114.974 6.49046 108.484 0 100.479 0ZM100.479 2.41597C107.14 2.41597 112.559 7.83496 112.559 14.4957C112.559 21.1565 107.14 26.5755 100.479 26.5755C93.8181 26.5755 88.3992 21.1565 88.3992 14.4957C88.3992 7.83496 93.8181 2.41597 100.479 2.41597ZM103.408 8.59719C102.643 8.56216 102.414 8.55491 100.479 8.55491C98.5435 8.55491 98.314 8.56095 97.5506 8.59598C95.584 8.68538 94.6683 9.61672 94.5789 11.5676C94.5451 12.331 94.5367 12.5606 94.5367 14.4957C94.5367 16.4309 94.5451 16.6604 94.5789 17.4239C94.6695 19.3699 95.5816 20.3049 97.5506 20.3955C98.314 20.4305 98.5435 20.4378 100.479 20.4378C102.415 20.4378 102.643 20.4293 103.408 20.3955C105.375 20.3061 106.289 19.3723 106.38 17.4239C106.413 16.6604 106.421 16.4309 106.421 14.4957C106.421 12.5606 106.413 12.3323 106.38 11.5676C106.289 9.61793 105.373 8.68658 103.408 8.59719ZM100.479 7.24786C98.5096 7.24786 98.2644 7.25632 97.4901 7.29256C94.8567 7.41336 93.3951 8.8738 93.2743 11.5072C93.2392 12.2815 93.2308 12.5279 93.2308 14.4957C93.2308 16.4647 93.2392 16.7112 93.2743 17.4843C93.3951 20.1164 94.8567 21.5793 97.4901 21.7001C98.2644 21.7351 98.5096 21.7436 100.479 21.7436C102.448 21.7436 102.694 21.7351 103.468 21.7001C106.097 21.5793 107.565 20.1189 107.683 17.4843C107.718 16.7112 107.726 16.4647 107.726 14.4957C107.726 12.5279 107.718 12.2815 107.683 11.5072C107.565 8.87743 106.102 7.41215 103.468 7.29256C102.694 7.25632 102.448 7.24786 100.479 7.24786ZM96.7565 14.4958C96.7565 12.4398 98.4235 10.774 100.478 10.774C102.533 10.774 104.2 12.441 104.2 14.4958C104.2 16.5517 102.533 18.2175 100.478 18.2175C98.4235 18.2175 96.7565 16.5517 96.7565 14.4958ZM100.478 16.9117C99.1435 16.9117 98.0624 15.8305 98.0624 14.4957C98.0624 13.1621 99.1435 12.0798 100.478 12.0798C101.812 12.0798 102.896 13.1609 102.896 14.4957C102.896 15.8305 101.812 16.9117 100.478 16.9117ZM103.477 10.6278C103.477 10.147 103.867 9.75806 104.347 9.75806C104.829 9.75806 105.218 10.147 105.218 10.6278C105.218 11.1086 104.828 11.4975 104.347 11.4975C103.866 11.4975 103.477 11.1074 103.477 10.6278Z" fill="#979797"/>
</svg>
